{  "asset": {    "version": "2.0",    "generator": "THREE.GLTFExporter"  },  "scenes": [    {      "name": "AuxScene",      "nodes": [        1      ]    }  ],  "scene": 0,  "nodes": [    {      "mesh": 0    },    {      "children": [        0      ]    }  ],  "bufferViews": [    {      "buffer": 0,      "byteOffset": 0,      "byteLength": 715680,      "target": 34962,      "byteStride": 12    },    {      "buffer": 0,      "byteOffset": 715680,      "byteLength": 715680,      "target": 34962,      "byteStride": 12    }  ],  "buffers": [    {      "byteLength": 1431360,      "uri": "data:application/octet-stream;base64,"    }  ],  "accessors": [    {      "bufferView": 0,      "componentType": 5126,      "count": 59640,      "max": [        10.475887298583984,        10.679222106933594,        2.967679977416992      ],      "min": [        -10.475883483886719,        -10.679224014282227,        -2.967679977416992      ],      "type": "VEC3"    },    {      "bufferView": 1,      "componentType": 5126,      "count": 59640,      "max": [        1,        1,        1      ],      "min": [        -1,        -1,        -1      ],      "type": "VEC3"    }  ],  "materials": [    {      "pbrMetallicRoughness": {        "baseColorFactor": [          0.5775742874986095,          0.5775742874986095,          0.5775742874986095,          1        ],        "metallicFactor": 0.5,        "roughnessFactor": 0.5      },      "doubleSided": true,      "name": "mat0"    }  ],  "meshes": [    {      "primitives": [        {          "mode": 4,          "attributes": {            "POSITION": 0,            "NORMAL": 1          },          "material": 0        }      ]    }  ]}