{  "asset": {    "version": "2.0",    "generator": "THREE.GLTFExporter"  },  "scenes": [    {      "name": "AuxScene",      "nodes": [        1      ]    }  ],  "scene": 0,  "nodes": [    {      "mesh": 0    },    {      "children": [        0      ]    }  ],  "bufferViews": [    {      "buffer": 0,      "byteOffset": 0,      "byteLength": 1426248,      "target": 34962,      "byteStride": 12    },    {      "buffer": 0,      "byteOffset": 1426248,      "byteLength": 1426248,      "target": 34962,      "byteStride": 12    }  ],  "buffers": [    {      "byteLength": 2852496,      "uri": "data:application/octet-stream;base64,"    }  ],  "accessors": [    {      "bufferView": 0,      "componentType": 5126,      "count": 118854,      "max": [        32.673954010009766,        19.703079223632812,        7.920000076293945      ],      "min": [        -32.67395782470703,        -19.703079223632812,        -7.920000076293945      ],      "type": "VEC3"    },    {      "bufferView": 1,      "componentType": 5126,      "count": 118854,      "max": [        1,        1,        1      ],      "min": [        -1,        -1,        -1      ],      "type": "VEC3"    }  ],  "materials": [    {      "pbrMetallicRoughness": {        "baseColorFactor": [          0.5775742874986095,          0.5775742874986095,          0.5775742874986095,          1        ],        "metallicFactor": 0.5,        "roughnessFactor": 0.5      },      "doubleSided": true,      "name": "mat0"    }  ],  "meshes": [    {      "primitives": [        {          "mode": 4,          "attributes": {            "POSITION": 0,            "NORMAL": 1          },          "material": 0        }      ]    }  ]}